<svg xmlns="http://www.w3.org/2000/svg" viewBox="0 0 64 64" width="64" height="64">
  <rect width="64" height="64" rx="13" fill="#ffffff"/>
  <path d="M47.2 12.2 L44.5 10.3 L41.6 8.9 L38.5 7.9 L35.3 7.2 L32.0 7.0 L28.7 7.2 L25.5 7.9 L22.4 8.9 L19.5 10.3 L16.8 12.2 L14.5 14.1 L49.5 14.1 Z" fill="#7d5ba6"/>
  <path d="M53.7 19.5 L51.8 16.8 L49.7 14.3 L49.5 14.1 L14.5 14.1 L14.3 14.3 L12.2 16.8 L10.3 19.5 L9.5 21.3 L54.5 21.3 Z" fill="#4b4b8f"/>
  <path d="M56.1 25.5 L55.1 22.4 L54.5 21.3 L9.5 21.3 L8.9 22.4 L7.9 25.5 L7.3 28.4 L56.7 28.4 Z" fill="#3d7ea6"/>
  <path d="M56.8 28.7 L56.7 28.4 L7.3 28.4 L7.2 28.7 L7.0 32.0 L7.2 35.3 L7.3 35.6 L56.7 35.6 L56.8 35.3 L57.0 32.0 Z" fill="#4f9d69"/>
  <path d="M7.9 38.5 L8.9 41.6 L9.5 42.7 L54.5 42.7 L55.1 41.6 L56.1 38.5 L56.7 35.6 L7.3 35.6 Z" fill="#e8c547"/>
  <path d="M10.3 44.5 L12.2 47.2 L14.3 49.7 L14.5 49.9 L49.5 49.9 L49.7 49.7 L51.8 47.2 L53.7 44.5 L54.5 42.7 L9.5 42.7 Z" fill="#e07b39"/>
  <path d="M16.8 51.8 L19.5 53.7 L22.4 55.1 L25.5 56.1 L28.7 56.8 L32.0 57.0 L35.3 56.8 L38.5 56.1 L41.6 55.1 L44.5 53.7 L47.2 51.8 L49.5 49.9 L14.5 49.9 Z" fill="#c0392b"/>
  </svg>
